<?xml version="1.0" encoding="UTF-8"?>
<svg id="Layer_1" data-name="Layer 1" xmlns="http://www.w3.org/2000/svg" viewBox="0 0 618.27 511.15">
  <defs>
    <style>
      .cls-1 {
        fill: #fcfcfd;
      }

      .cls-2 {
        fill: #fcc001;
      }
    </style>
  </defs>
  <path class="cls-2" d="M377.43,184.79c0,1.36,0,2.71,0,4.07,0,39.32,0,78.64,0,117.96,0,.56-.01,1.12,0,1.68,.1,6.64-2.78,11.1-9.06,13.72-12.45,5.19-25.33,8.67-38.67,10.55-5.86,.83-11.74,1.3-17.64,1.7-7.97,.54-9.92-1.22-9.92-9.15,.02-39.24,.02-78.48,.13-117.72,0-3.35-.93-5.58-3.84-7.54-9.17-6.17-9.16-19.64-.02-25.79,2.91-1.96,3.85-4.28,3.85-7.61-.09-39.08-.09-78.16-.12-117.24,0-8.66,1.78-10.42,10.43-10.2,20.6,.53,40.29,5.09,59.12,13.45,3.8,1.69,5.92,4.3,5.92,8.64-.04,40.68-.02,81.36-.02,122.03v1.44c-.05,0-.11,0-.16,0Zm-64.25,77.16s.02,0,.03,0c0,3.68,.01,7.35,0,11.03-.06,15.18-.15,30.36-.17,45.54,0,3.77,.76,4.43,4.62,4.18,15.25-.97,29.92-4.53,44.16-9.99,3.03-1.16,4.21-3.3,4.2-6.48-.07-25.49-.08-50.98-.1-76.47,0-5.43-.1-10.87,.05-16.3,.06-2.06-.63-2.53-2.56-2.46-4.23,.14-8.47,0-12.7,.07-1.43,.03-1.93-.38-1.92-1.88,.05-14.14,.06-28.29,0-42.43,0-1.61,.66-1.8,2-1.78,4.23,.06,8.47-.09,12.7,.07,2.05,.08,2.49-.6,2.48-2.55-.08-16.78-.05-33.56-.04-50.34,.01-14.94,.03-29.88,.09-44.83,.01-2.9-.85-5.22-3.71-6.34-14.58-5.71-29.65-9.35-45.31-10.26-3.34-.19-3.86,.44-3.85,3.84,.04,30.84,.09,61.69,.11,92.53,0,6.87,0,13.74-.1,20.61-.04,2.74,.95,4.59,3.32,6.11,9.86,6.35,9.99,19.91,.23,26.49-2.54,1.71-3.58,3.69-3.57,6.73,.09,18.3,.05,36.6,.05,54.89Z"/>
  <path class="cls-2" d="M391.42,190.43c0-40.75,0-81.5,0-122.25,0-1.04-.05-2.1,.13-3.11,.62-3.54,4.14-5.37,7.75-4.01,1.03,.39,2.01,.98,2.93,1.6,21.3,14.42,38.91,32.31,51.2,55.07,13.23,24.5,19.59,50.65,17.95,78.53-1.34,22.72-7.82,44.05-18.21,64.23-1.24,2.41-2.48,4.83-3.83,7.18-1.61,2.79-4.03,4.05-6.47,3.54-4-.83-5.73-4.61-3.8-8.58,1.53-3.15,3.38-6.15,4.88-9.32,10.6-22.38,15.72-45.94,15.07-70.72-.07-2.77-.59-3.28-3.46-3.28-16.22,0-32.44,0-48.66,0-3.24,0-3.5,.28-3.5,3.61-.03,40.75-.05,81.5-.08,122.25,0,1.12,.03,2.24-.09,3.35-.65,5.73-3.26,8.07-9.05,8.47-2.06,.14-2.79-.44-2.79-2.63,.06-30.36,.03-60.73,.02-91.09,0-10.95,0-21.89,0-32.84Zm11.99-67.46s-.05,0-.08,0c0,13.42,0,26.84,0,40.26,0,3.52,.46,4.01,4.01,4,7.83-.03,15.65-.15,23.48-.15,7.83,0,15.65,.12,23.48,.14,2.72,0,3.11-.52,2.53-3.17-.69-3.19-1.33-6.4-2.17-9.56-7.9-29.59-23.77-53.95-47.96-72.81-.85-.66-1.76-2-2.74-1.58-1.11,.47-.52,2.02-.52,3.08-.03,13.26-.02,26.52-.02,39.78Z"/>
  <path class="cls-2" d="M177.81,144.73c3.69-13.44,7.2-26.36,10.77-39.26,3.77-13.6,7.81-27.12,12.41-40.46,.54-1.58,.7-3.63,3.3-3.21,5.2,.83,6.32,1.59,6.33,4.9,.03,8.71-.05,17.42-.06,26.13,0,72.48,0,144.96,0,217.45,0,4.21-.54,4.69-4.77,4.26-4.16-.42-6.48-2.64-7.04-6.84-.14-1.02-.1-2.07-.1-3.11,0-60.81,0-121.63-.02-182.44,0-.91,.26-1.88-.34-2.89-.87,.3-.86,1.1-1.02,1.71-3.6,13.15-7.21,26.29-10.76,39.45-.8,2.96-2,5.4-5.44,5.86-3.49,.46-5.74-1.24-7.44-4.08-5.25-8.76-10.54-17.5-15.91-26.39-.97,.81-1.24,1.89-1.67,2.84-5.38,11.83-8.03,24.34-9.21,37.22-2.82,30.97,4.26,59.56,20.56,85.95,1.63,2.64,1.35,3.4-1.51,4.72-5.74,2.64-9.16,1.71-12.2-3.79-9.71-17.55-16.33-36.15-18.88-56.12-3.82-29.92,2.22-58.09,14.95-85.09,1.33-2.83,3.02-5.45,5.19-7.72,2.21-2.31,3.06-2.24,4.66,.45,5.55,9.33,11.08,18.67,16.62,28,.4,.67,.84,1.32,1.59,2.48Z"/>
  <path class="cls-2" d="M230.3,189.59c0-39.87,0-79.75,0-119.62,0-2.32,.14-4.62,.37-6.93,.44-4.48,2.68-7.57,6.7-9.47,11.33-5.34,23.25-8.77,35.56-10.91,3.06-.53,6.12-1.12,9.26-1.06,3.89,.08,5.56,1.46,6,5.04,.44,3.57-1.19,6.19-4.69,6.98-2.95,.66-5.98,.97-8.97,1.47-9.87,1.64-19.38,4.58-28.7,8.18-2.5,.97-3.19,2.8-3.16,5.29,.11,8.31,.18,16.62,.17,24.93-.02,15.74-.09,31.48-.15,47.22-.03,7.35-.05,14.7-.19,22.05-.03,1.75,.39,2.36,2.24,2.3,4.31-.14,8.63,.02,12.94-.08,1.62-.04,1.99,.49,1.98,2.04-.06,13.98-.07,27.97,0,41.95,0,1.7-.47,2.17-2.14,2.12-4.07-.12-8.15,.08-12.22-.08-2.06-.08-2.67,.41-2.67,2.59,.08,28.85,.05,57.69,.05,86.54,0,2.88,.06,5.75,0,8.63-.06,2.78,1.23,4.45,3.79,5.42,11.3,4.29,22.86,7.55,34.89,8.97,5.71,.67,8.07,3.87,6.5,8.92-.91,2.93-2.93,4.46-5.95,3.99-15.01-2.33-29.71-5.87-43.76-11.79-5.96-2.51-7.63-7.44-7.65-13.39-.04-13.34-.19-26.68-.21-40.02-.03-27.09-.01-54.18-.01-81.26Z"/>
  <path class="cls-1" d="M476.28,431.79c-9.67,0-19.34,.05-29-.04-1.86-.02-2.29,.5-2.09,2.3,1.01,9.51,6.73,15.34,16.86,16.55,9.92,1.18,19.28-.35,27.27-6.91,1.13-.93,1.4-.27,1.88,.55,1.99,3.37,3.94,6.76,6.05,10.04,.83,1.3,.41,1.9-.6,2.7-6.1,4.82-13.12,7.5-20.69,8.8-8.61,1.47-17.2,1.37-25.58-1.35-14.45-4.7-22.99-15.9-23.32-31.33-.35-16.18,5.44-29.8,19.1-39.11,13.25-9.03,27.86-10.41,42.72-4.86,12.15,4.54,18.22,14.22,19.53,26.95,.46,4.46,.15,8.92-.44,13.37-.23,1.72-.78,2.4-2.68,2.37-9.67-.11-19.33-.05-29-.05Zm-7.07-12.23c6.79,0,13.59-.04,20.38,.03,1.56,.02,2.12-.39,1.98-2-.54-6.55-3.37-11.61-9.47-14.44-10.26-4.75-28.22-3-34.68,14.28-.61,1.64-.52,2.19,1.42,2.16,6.79-.1,13.58-.04,20.38-.04Z"/>
  <path class="cls-1" d="M318.32,386.04c7.24,.19,13.8,1,19.91,3.87,12.67,5.94,18.63,16.24,18.88,29.96,.22,12.02-3.33,22.83-11.49,31.84-9.01,9.95-20.44,14.62-33.77,14.93-7.02,.16-13.89-.65-20.31-3.65-12.88-6.01-19.2-16.4-19.39-30.42-.17-12.36,3.61-23.4,12.3-32.47,7.65-7.99,17.07-12.37,28.01-13.61,2.14-.24,4.29-.33,5.87-.44Zm-6.99,64.75c5.53,.02,10.32-1.21,14.3-3.92,10.16-6.91,13.6-16.85,12.59-28.65-.64-7.45-5.41-13.29-12.49-15.32-6.33-1.81-12.69-1.66-18.7,1.15-11.33,5.29-15.95,14.83-16.19,26.82-.15,7.62,2.45,13.94,9.6,17.64,3.4,1.76,7.1,2.29,10.89,2.27Z"/>
  <path class="cls-1" d="M152.61,386.03c9.06,.37,17.94,1.45,26.22,5.59,1.86,.93,2.09,1.78,1.14,3.56-1.83,3.44-3.5,6.98-5.11,10.53-.51,1.13-.86,1.37-2.03,.71-9.3-5.21-19.31-6.2-29.67-4.61-3.05,.47-5.82,1.66-7.94,4.04-3.13,3.52-2.42,7.73,1.73,9.95,4.58,2.45,9.69,3.08,14.66,4.18,3.66,.81,7.31,1.58,10.86,2.82,12.33,4.31,15.74,13.57,11.93,25.62-2.56,8.11-8.97,12.75-16.73,15.17-16.84,5.26-33.37,3.94-49.4-3.42-.65-.3-1.22-.78-1.87-1.06-1.39-.61-1.36-1.39-.66-2.62,2.05-3.6,4.03-7.25,5.93-10.93,.69-1.34,1.18-1.53,2.59-.73,10.81,6.15,22.41,8.04,34.63,5.84,3.11-.56,5.98-1.82,7.78-4.66,2.21-3.51,1.13-7.14-2.66-8.93-4.23-2-8.84-2.62-13.35-3.63-4.12-.92-8.25-1.76-12.23-3.25-13.75-5.15-17.8-20.84-8.23-32.18,5.67-6.72,13.36-9.56,21.7-11.07,3.54-.64,7.13-.77,10.72-.94Z"/>
  <path class="cls-1" d="M226.57,466.62c-7.22,.09-13.8-1.02-19.96-3.95-12.2-5.82-18.45-15.75-18.82-29.08-.45-16.32,5.53-29.84,19.18-39.32,10.91-7.58,23.21-9.37,36.13-7.5,9.74,1.41,17.82,5.78,23.5,14.08,2.47,3.61,2.49,3.63-1.36,5.62-3.61,1.87-7.25,3.67-10.86,5.54-.86,.45-1.41,.75-2.07-.41-4.93-8.69-13.07-10.59-22.03-9.54-19.87,2.34-26.71,22.32-22.84,36.14,1.97,7.06,8.17,11.72,16.26,12.43,9.55,.84,17.91-1.57,24.02-9.47,.89-1.15,1.5-.96,2.49-.27,3.41,2.37,6.8,4.77,10.33,6.94,1.8,1.1,1.48,1.92,.41,3.28-6.13,7.86-14.34,12.25-23.87,14.44-3.59,.83-7.25,1.18-10.51,1.07Z"/>
  <path class="cls-1" d="M397.31,396.61c7.96-8.49,17.84-9.91,28.01-10.54,1.6-.1,2.07,.22,1.68,1.95-1.04,4.67-1.85,9.39-2.77,14.08-.15,.78,0,1.64-1.48,1.51-16.69-1.51-27.02,6.17-30.39,22.56-2.57,12.5-5.11,25-7.56,37.52-.29,1.5-.76,1.96-2.27,1.93-4.95-.09-9.91-.1-14.86,0-1.67,.04-1.74-.5-1.46-1.93,4.96-24.79,9.88-49.59,14.76-74.4,.32-1.63,.81-2.4,2.7-2.33,4.55,.17,9.11,.09,13.66,.03,1.33-.02,1.84,.18,1.45,1.71-.6,2.36-.91,4.79-1.48,7.91Z"/>
  <path class="cls-1" d="M567.12,395.54c5.66-7.39,11.03-14.41,16.41-21.44,1.31-1.71,2.67-3.39,3.91-5.15,.67-.95,1.57-1.23,2.48-.86,1.06,.43,.35,1.38,.21,2.08-2.12,10.72-4.27,21.44-6.41,32.15-.12,.61-.01,1.43-.64,1.71-.54,.24-1.32,.29-1.86,.08-.84-.33-.28-1.11-.17-1.66,1.6-8.14,3.24-16.27,4.85-24.41,.17-.85,.28-1.71,.43-2.66-1.08,.18-1.35,1-1.8,1.58-5.31,6.89-10.6,13.8-15.92,20.69-.55,.71-.9,1.85-2.13,1.64-1.21-.21-1.15-1.42-1.48-2.25-2.71-6.89-5.36-13.81-8.03-20.71-.25-.65-.54-1.29-1.07-2.56-1.04,5.13-1.96,9.64-2.86,14.16-.99,4.93-2.01,9.85-2.9,14.8-.26,1.44-1.04,1.67-2.17,1.44-1.39-.27-.55-1.25-.43-1.87,2.12-10.8,4.28-21.6,6.45-32.39,.16-.81,.03-1.8,1.32-1.93,1.33-.13,1.57,.81,1.91,1.7,3.25,8.48,6.49,16.96,9.9,25.86Z"/>
  <path class="cls-1" d="M534.05,368c4.15,0,8.3-.02,12.44,.02,.66,0,1.77-.48,1.69,.94-.06,1.14-.59,1.66-1.83,1.63-2.95-.08-5.92,.16-8.85-.08-2.2-.18-2.79,.78-3.16,2.68-1.87,9.78-3.85,19.54-5.8,29.3-.12,.6,0,1.41-.75,1.61-.58,.16-1.37,.23-1.85-.04-.66-.37-.22-1.16-.1-1.74,1.93-9.68,3.8-19.37,5.87-29.02,.48-2.25,.14-2.97-2.23-2.78-2.46,.19-4.95,.14-7.41,0-.86-.05-2.48,.99-2.54-.95-.06-2,1.58-1.56,2.78-1.56,3.91-.02,7.82,0,11.73,0Z"/>
</svg>